<svg width="27" height="27" viewBox="0 0 27 27" fill="none" xmlns="http://www.w3.org/2000/svg">
<path d="M19.8779 23.0964C18.7282 24.211 17.4728 24.035 16.2645 23.507C14.9857 22.9674 13.8125 22.9439 12.4633 23.507C10.774 24.2344 9.88234 24.0233 8.8734 23.0964C3.14826 17.1953 3.99295 8.20871 10.4924 7.88022C12.0762 7.96234 13.179 8.74838 14.1058 8.81877C15.4902 8.5372 16.8159 7.72771 18.2941 7.83329C20.0656 7.97408 21.403 8.67799 22.2829 9.94503C18.6226 12.1389 19.4907 16.9607 22.846 18.3098C22.1773 20.0696 21.3092 21.8177 19.8661 23.1082L19.8779 23.0964ZM13.9885 7.80983C13.8125 5.19363 15.936 3.03496 18.3762 2.82379C18.7164 5.85061 15.6309 8.10313 13.9885 7.80983Z" fill="#1E1E1E"/>
</svg>
