<svg width="61" height="61" viewBox="0 0 61 61" fill="none" xmlns="http://www.w3.org/2000/svg">
<path d="M26.9126 5.68765C25.9276 6.16015 25.0251 6.93015 23.7626 8.00765L23.5651 8.17265C22.4752 9.15519 21.0806 9.73331 19.6151 9.81015L19.3601 9.83015C17.7051 9.96265 16.5226 10.0551 15.4926 10.4201C14.322 10.8337 13.2587 11.5039 12.3806 12.3816C11.5025 13.2592 10.8318 14.3222 10.4176 15.4926C10.0551 16.5226 9.96265 17.7051 9.83015 19.3601L9.81015 19.6151C9.73331 21.0806 9.15519 22.4752 8.17265 23.5651L8.00765 23.7601C6.93015 25.0251 6.15765 25.9276 5.68765 26.9126C5.15266 28.0329 4.875 29.2587 4.875 30.5001C4.875 31.7416 5.15266 32.9674 5.68765 34.0876C6.16015 35.0726 6.93015 35.9751 8.00765 37.2376L8.17265 37.4351C9.19765 38.6351 9.68265 39.7826 9.81015 41.3851L9.83015 41.6401C9.96265 43.2951 10.0551 44.4776 10.4201 45.5076C10.8337 46.6783 11.5039 47.7416 12.3816 48.6197C13.2592 49.4978 14.3222 50.1685 15.4926 50.5826C16.5226 50.9451 17.7051 51.0376 19.3601 51.1701L19.6151 51.1901C21.1876 51.3151 22.3401 51.7851 23.5651 52.8276L23.7626 52.9926C25.0251 54.0701 25.9276 54.8426 26.9126 55.3126C28.0329 55.8476 29.2587 56.1253 30.5001 56.1253C31.7416 56.1253 32.9674 55.8476 34.0876 55.3126C35.0726 54.8401 35.9751 54.0701 37.2376 52.9926L37.4351 52.8276C38.6351 51.8026 39.7826 51.3176 41.3851 51.1901L41.6401 51.1701C43.2951 51.0376 44.4776 50.9451 45.5076 50.5801C46.6783 50.1666 47.7416 49.4964 48.6197 48.6187C49.4978 47.741 50.1685 46.6781 50.5826 45.5076C50.9451 44.4776 51.0376 43.2951 51.1701 41.6401L51.1901 41.3851C51.3151 39.8126 51.7851 38.6601 52.8276 37.4351L52.9926 37.2376C54.0701 35.9751 54.8426 35.0726 55.3126 34.0876C55.8476 32.9674 56.1253 31.7416 56.1253 30.5001C56.1253 29.2587 55.8476 28.0329 55.3126 26.9126C54.8401 25.9276 54.0701 25.0251 52.9926 23.7626L52.8276 23.5651C51.8451 22.4752 51.267 21.0806 51.1901 19.6151L51.1701 19.3601C51.0376 17.7051 50.9451 16.5226 50.5801 15.4926C50.1666 14.322 49.4964 13.2587 48.6187 12.3806C47.741 11.5025 46.6781 10.8318 45.5076 10.4176C44.4776 10.0551 43.2951 9.96265 41.6401 9.83015L41.3851 9.81015C39.9197 9.73331 38.5251 9.15519 37.4351 8.17265L37.2376 8.00765C35.9751 6.93015 35.0726 6.15765 34.0876 5.68765C32.9674 5.15266 31.7416 4.875 30.5001 4.875C29.2587 4.875 28.0329 5.15266 26.9126 5.68765ZM39.9326 22.2301C40.3353 22.5216 40.6058 22.9611 40.6846 23.4519C40.7633 23.9428 40.6439 24.4448 40.3526 24.8476L31.3601 37.3001C30.9749 37.8338 30.4743 38.2736 29.8955 38.5869C29.3167 38.9002 28.6747 39.0789 28.0173 39.1096C27.3599 39.1404 26.704 39.0224 26.0985 38.7645C25.493 38.5066 24.9535 38.1155 24.5201 37.6201L20.7551 33.3201C20.5928 33.1347 20.4686 32.919 20.3896 32.6855C20.3106 32.452 20.2783 32.2052 20.2947 31.9593C20.3111 31.7133 20.3757 31.473 20.485 31.252C20.5942 31.031 20.7459 30.8337 20.9314 30.6714C21.1169 30.509 21.3325 30.3848 21.566 30.3058C21.7995 30.2268 22.0463 30.1946 22.2923 30.2109C22.5382 30.2273 22.7786 30.292 22.9995 30.4012C23.2205 30.5105 23.4178 30.6622 23.5801 30.8476L27.3426 35.1501C27.4045 35.2206 27.4814 35.2761 27.5677 35.3128C27.6539 35.3495 27.7473 35.3663 27.841 35.3619C27.9346 35.3576 28.026 35.3323 28.1086 35.2878C28.1911 35.2434 28.2625 35.181 28.3176 35.1051L37.3126 22.6526C37.4568 22.4527 37.639 22.2832 37.8487 22.1537C38.0585 22.0242 38.2917 21.9374 38.535 21.8981C38.7784 21.8589 39.0271 21.868 39.2669 21.925C39.5067 21.982 39.7329 22.0857 39.9326 22.2301Z" fill="#25632D"/>
</svg>
