<svg width="27" height="27" viewBox="0 0 27 27" fill="none" xmlns="http://www.w3.org/2000/svg">
<path d="M23.8506 11.3156H23V11.2718H13.496V15.4958H19.464C18.5933 17.9547 16.2538 19.7198 13.496 19.7198C9.99698 19.7198 7.16004 16.8828 7.16004 13.3838C7.16004 9.88474 9.99698 7.04779 13.496 7.04779C15.1112 7.04779 16.5806 7.6571 17.6994 8.65238L20.6863 5.66549C18.8003 3.90778 16.2775 2.82379 13.496 2.82379C7.66428 2.82379 2.93604 7.55203 2.93604 13.3838C2.93604 19.2156 7.66428 23.9438 13.496 23.9438C19.3278 23.9438 24.056 19.2156 24.056 13.3838C24.056 12.6757 23.9832 11.9846 23.8506 11.3156Z" fill="#FFC107"/>
<path d="M4.15369 8.46864L7.62317 11.0131C8.56196 8.68882 10.8355 7.04779 13.4961 7.04779C15.1113 7.04779 16.5807 7.6571 17.6995 8.65238L20.6864 5.66549C18.8004 3.90778 16.2776 2.82379 13.4961 2.82379C9.44002 2.82379 5.92249 5.11373 4.15369 8.46864Z" fill="#FF3D00"/>
<path d="M13.496 23.9438C16.2237 23.9438 18.7021 22.8999 20.576 21.2024L17.3076 18.4367C16.2118 19.2701 14.8727 19.7209 13.496 19.7198C10.7494 19.7198 8.41718 17.9684 7.53859 15.5243L4.09497 18.1775C5.84265 21.5973 9.39187 23.9438 13.496 23.9438Z" fill="#4CAF50"/>
<path d="M23.8506 11.3157H23V11.2719H13.496V15.4959H19.464C19.0475 16.6661 18.2973 17.6887 17.306 18.4373L17.3076 18.4363L20.5759 21.2019C20.3447 21.4121 24.056 18.6639 24.056 13.3839C24.056 12.6758 23.9831 11.9847 23.8506 11.3157Z" fill="#1976D2"/>
</svg>
