<svg width="26" height="24" viewBox="0 0 26 24" fill="none" xmlns="http://www.w3.org/2000/svg">
<path d="M2.54122 1.5L6.72857 5.68735M23.5412 22.5L19.3543 18.3131M15.2286 19.9621C14.5202 20.0964 13.7892 20.1667 13.0418 20.1667C7.81783 20.1667 3.39581 16.7333 1.90918 12C2.31389 10.7114 2.93614 9.51921 3.73289 8.46638M10.5663 9.52513C11.1997 8.89175 12.0747 8.5 13.0412 8.5C14.9742 8.5 16.5412 10.067 16.5412 12C16.5412 12.9665 16.1495 13.8415 15.5161 14.4749M10.5663 9.52513L15.5161 14.4749M10.5663 9.52513L6.72857 5.68735M15.5161 14.4749L6.72857 5.68735M15.5161 14.4749L19.3543 18.3131M6.72857 5.68735C8.54836 4.51413 10.7155 3.83333 13.0417 3.83333C18.2657 3.83333 22.6877 7.26673 24.1743 12C23.3496 14.6258 21.6215 16.8516 19.3543 18.3131" stroke="#667085" stroke-width="2.7" stroke-linecap="round" stroke-linejoin="round"/>
</svg>
