<svg width="23" height="23" viewBox="0 0 23 23" fill="none" xmlns="http://www.w3.org/2000/svg">
<path d="M10.16 22.21V20.21C8.07663 19.9767 6.28896 19.1143 4.79696 17.623C3.30496 16.1317 2.44263 14.344 2.20996 12.26H0.209961V10.26H2.20996C2.44329 8.17666 3.30596 6.389 4.79796 4.897C6.28996 3.405 8.07729 2.54266 10.16 2.31V0.309998H12.16V2.31C14.2433 2.54333 16.031 3.406 17.523 4.898C19.015 6.39 19.8773 8.17733 20.11 10.26H22.11V12.26H20.11C19.8766 14.3433 19.0143 16.131 17.523 17.623C16.0316 19.115 14.244 19.9773 12.16 20.21V22.21H10.16ZM11.16 18.26C13.0933 18.26 14.7433 17.5767 16.11 16.21C17.4766 14.8433 18.16 13.1933 18.16 11.26C18.16 9.32666 17.4766 7.67666 16.11 6.31C14.7433 4.94333 13.0933 4.26 11.16 4.26C9.22663 4.26 7.57663 4.94333 6.20996 6.31C4.84329 7.67666 4.15996 9.32666 4.15996 11.26C4.15996 13.1933 4.84329 14.8433 6.20996 16.21C7.57663 17.5767 9.22663 18.26 11.16 18.26ZM11.16 15.26C10.06 15.26 9.11829 14.8683 8.33496 14.085C7.55163 13.3017 7.15996 12.36 7.15996 11.26C7.15996 10.16 7.55163 9.21833 8.33496 8.435C9.11829 7.65166 10.06 7.26 11.16 7.26C12.26 7.26 13.2016 7.65166 13.985 8.435C14.7683 9.21833 15.16 10.16 15.16 11.26C15.16 12.36 14.7683 13.3017 13.985 14.085C13.2016 14.8683 12.26 15.26 11.16 15.26Z" fill="#25632D"/>
</svg>
