<svg width="23" height="14" viewBox="0 0 23 14" fill="none" xmlns="http://www.w3.org/2000/svg">
<path d="M1.75916 8.88465C2.75289 4.53339 6.90702 1.44167 11.5799 1.44167C16.2513 1.44167 20.4054 4.53339 21.4006 8.88465C21.44 9.05732 21.553 9.20863 21.7148 9.30531C21.8765 9.40198 22.0738 9.4361 22.2632 9.40016C22.4525 9.36422 22.6185 9.26116 22.7245 9.11365C22.8305 8.96615 22.8679 8.78628 22.8285 8.61361C21.6964 3.66447 16.9609 0.113037 11.5799 0.113037C6.19888 0.113037 1.46337 3.66447 0.331226 8.61361C0.291809 8.78628 0.329227 8.96615 0.43525 9.11365C0.541273 9.26116 0.707216 9.36422 0.896572 9.40016C1.08593 9.4361 1.28319 9.40198 1.44495 9.30531C1.60672 9.20863 1.71974 9.05732 1.75916 8.88465ZM11.5653 4.09893C12.9178 4.09893 14.215 4.58886 15.1714 5.46094C16.1278 6.33302 16.6651 7.51582 16.6651 8.74913C16.6651 9.98244 16.1278 11.1652 15.1714 12.0373C14.215 12.9094 12.9178 13.3993 11.5653 13.3993C10.2128 13.3993 8.9156 12.9094 7.95921 12.0373C7.00282 11.1652 6.46552 9.98244 6.46552 8.74913C6.46552 7.51582 7.00282 6.33302 7.95921 5.46094C8.9156 4.58886 10.2128 4.09893 11.5653 4.09893Z" fill="#6A707C"/>
</svg>
